<svg id="Layer_1" data-name="Layer 1" xmlns="http://www.w3.org/2000/svg" viewBox="0 0 960 444.19"><defs><style>.cls-1{fill:#364469;}</style></defs><path class="cls-1" d="M158,419.43l-65.53,0c-7.86,0-12.4-6.5-12.4-14.29V340.74c.35-10.88,3.47-21.86,8-31.73a660,660,0,0,1,39.59-69.81q3,27.93,5.92,55.87c-5.86,5.6-8.75,8.48-14.41,14.36q2.89,30.3,5.8,60.59c3.88-1.63,5.82-2.43,9.73-4L130,320.55c6.25-5,9.41-7.4,15.82-12.11Z" transform="translate(0 -38.98)"/><path class="cls-1" d="M234.36,377.21c.74,9.79,6,37.87-8,42.26q-25.71,0-51.42,0c-13.25-1.56-14.74-20.27-15.79-30.55L143.94,251.33c-1.84-14.15-1.78-32.34,7.11-44.34a583.93,583.93,0,0,1,46.89-51.44c13.23-13,16.09,28.42,16.47,31.27Zm-35.42-27.68L187.09,243.11c-4.58,3.41-6.85,5.15-11.34,8.7q5.7,50.58,11.39,101.16C191.85,351.57,194.21,350.88,198.94,349.53Z" transform="translate(0 -38.98)"/><path class="cls-1" d="M307.66,419.57l-63.32-.09Q229.9,279.65,215.46,139.8a534.62,534.62,0,0,1,51.61-37.93L286,321.07c5.39-1.09,8.09-1.61,13.51-2.62Q303.57,369,307.66,419.57Z" transform="translate(0 -38.98)"/><path class="cls-1" d="M386.62,363.12c.32,10.89,5.87,52.33-10,56.59l-63.94-.13q-13-164.65-26-329.32a489.55,489.55,0,0,1,71.8-31.38c17.67-4,16.31,43,16.8,51.3Q381,236.66,386.62,363.12Zm-35.63-44-9.12-153c-5.3,1.55-7.95,2.36-13.21,4.06l9.78,150.5C343.45,320.09,346,319.77,351,319.16Z" transform="translate(0 -38.98)"/><path class="cls-1" d="M458,419.89l-63.35-.15-15.42-367A473.33,473.33,0,0,1,453.76,40l1.32,117.77c-6,.32-8.94.52-14.89,1q.36,20.8.74,41.62c5.84-.41,8.77-.58,14.62-.84l.69,61.26c-5.69.19-8.54.31-14.23.6q.36,20.57.73,41.15c5.59-.21,8.38-.3,14-.44Q457.37,361,458,419.89Z" transform="translate(0 -38.98)"/><path class="cls-1" d="M535.41,420.07,505.34,420l1-80.32c-5-.09-7.55-.12-12.58-.17q-.25,40.23-.49,80.46l-30.16-.07q-1.68-190.15-3.34-380.31c11.15-.5,22.13-.69,33.3-.58q8.32,28.37,16.2,56.86.35-28.05.68-56.08,17.85,1.2,35.54,4Z" transform="translate(0 -38.98)"/><path class="cls-1" d="M645.88,420.3l-32-.06,4.71-74.13c-5-.48-7.46-.71-12.44-1.15l-4.38,75.26-32.08-.07q7.95-183.94,15.89-367.89,18.7,5,36.89,11.71-2.21,37.86-4.4,75.71c5.37,1.61,8,2.45,13.37,4.23l4.74-74.57q18.15,7.5,35.53,16.69Q658.81,253.16,645.88,420.3Z" transform="translate(0 -38.98)"/><path class="cls-1" d="M732.18,378.11c-1.59,11.73-2.35,37.72-16.89,42.29l-51.46-.07c-15.87-4.87-9.13-39.27-8.36-50.92q9.13-114.6,18.25-229.22c.61-5.95,1.95-49.49,17.46-43.2a528.14,528.14,0,0,1,53.35,37.77c13.51,12.1,9.12,37.21,7.79,52.82Q742.26,282.85,732.18,378.11Zm-28.31-43.57,12.57-130.63C711.5,201.28,709,200,704,197.52L691.64,332C696.54,333,699,333.5,703.87,334.54Z" transform="translate(0 -38.98)"/><path class="cls-1" d="M805.74,389.14c-.72,9.76-4.16,28.53-15.77,31.32l-44.41,0c-13.83-3.16-8.5-33-7.79-42.24l24.42-228Q776.13,163,789,176.89l-5.79,51.76c4.52,3.78,6.75,5.71,11.18,9.65l5.55-49.15Q812.8,204.08,824.44,220,815.1,304.57,805.74,389.14Z" transform="translate(0 -38.98)"/><path class="cls-1" d="M884.64,420.42l-32.1,0L854.73,392c-4.56-1.3-6.84-1.94-11.43-3.2q-1.44,15.86-2.87,31.69h-32.1q10.54-96.76,21.1-193.53a624.63,624.63,0,0,1,47.25,81.12c4.59,10.05,7.69,20.95,8,32V363.7c0,9.26-3,10.47-7.54,9v.27c4.23,3.91,7.54,11.88,7.54,18.05Zm-25.85-81.25c.68-8.82,1-13.24,1.69-22.06-3.8-4.73-5.72-7.06-9.63-11.63-.89,9.81-1.34,14.72-2.23,24.54C852.73,333.62,854.77,335.45,858.79,339.17Z" transform="translate(0 -38.98)"/><ellipse class="cls-1" cx="480" cy="387.93" rx="480" ry="12.03"/><ellipse class="cls-1" cx="480.41" cy="403.56" rx="359.38" ry="15.63"/><ellipse class="cls-1" cx="485.85" cy="419.2" rx="245.26" ry="12.27"/><ellipse class="cls-1" cx="472.82" cy="431.47" rx="164.27" ry="12.72"/></svg>