<?xml version="1.0" encoding="utf-8"?>
<!-- Generator: Adobe Illustrator 25.1.0, SVG Export Plug-In . SVG Version: 6.00 Build 0)  -->
<svg version="1.1" id="b8fd26cb-ef73-4435-962d-116be8bd3a0a"
	 xmlns="http://www.w3.org/2000/svg" xmlns:xlink="http://www.w3.org/1999/xlink" x="0px" y="0px" viewBox="0 0 1145 730.5"
	 style="enable-background:new 0 0 1145 730.5;" xml:space="preserve">
<style type="text/css">
	.st0{fill:#FFFFFF;}
	.st1{opacity:0.1;fill:#FFD763;enable-background:new    ;}
	.st2{fill:#E8EAF2;}
	.st3{opacity:0.3;fill:#FFD763;enable-background:new    ;}
	.st4{fill:#F86D70;}
	.st5{fill:#3F3D56;}
	.st6{opacity:0.1;enable-background:new    ;}
	.st7{fill:#FFD763;}
	.st8{fill:#FABDBD;}
	.st9{fill:url(#SVGID_1_);}
	.st10{fill:#434175;}
	.st11{fill:#AE6E79;}
</style>
<path class="st0" d="M1145,467.7c0,19.7-2.3,39.3-6.8,58.4c-3.7,15.5-9,30.6-15.8,45c-1.1,2.4-2.3,4.8-3.5,7.1
	c0.1,28.5-8,56.5-23.3,80.6c-26.3,41.4-72.1,68.8-124.3,68.8H218.2c-34.7,0-68.7-9.7-98.2-28c-24-14.9-44.3-35-59.6-58.7
	c-19.8-30.9-30.3-66.8-30.3-103.5c-3.2-5.8-6.2-11.8-8.9-18c-8.7-19.9-14.7-41-17.7-62.6C1.8,445.1,1,433.2,1,421.2
	c0-66.9,26-126.6,66.7-165.4c30.3-28.9,68.6-46.1,110.3-46.1c3.5,0,6.9,0.1,10.3,0.4c1.9-3.8,3.8-7.5,5.9-11.2
	c55.7-102,165-176.4,295.2-194c19.7-2.7,39.5-4,59.4-4c12.5,0,24.8,0.5,36.9,1.5l0,0C667.5,9.2,742.1,38.4,801.7,83
	c1.8,1.3,3.6,2.7,5.3,4.1c25.4-16.9,54.7-26.6,85.9-26.6c5.3,0,10.6,0.3,15.9,0.9c76.5,8.1,139,74.5,156.3,161.7
	c3.2,16.1,4.8,32.5,4.8,49c0,7.5-0.3,14.8-1,22.1c5.7,4.7,11.1,9.8,16.2,15.2C1121.9,348,1145,404.7,1145,467.7z"/>
<path class="st1" d="M119,698.8c4.3,2.7,8.8,5.2,13.4,7.6L584,435.7l6,11l-263,280h66.5l219.5-245l8,7l-53.4,238h75l52.4-205h19
	l74.4,205h72l-53.4-238l8-7l210,234.4c15.3-6.2,29.5-14.9,41.9-25.8L838,446.7l6-11l272.3,163.2c1-7.1,1.5-14.4,1.5-21.6
	c1.2-2.3,2.4-4.7,3.5-7.1c6.8-14.4,12.1-29.5,15.8-45c0.8-3.5,1.6-7,2.3-10.6L844,402.7v-27l291.2,25.1c-9.9-36.1-27.7-67.9-51-92.5
	l-0.4-0.4L844,355.7v-26l219-113.3c-9.6-43.3-30.4-81.1-58.5-108.7L815,319.3l-8-7l56.1-250c-20.4,4.1-39.7,12.2-57,23.8
	c-1.8-1.4-3.5-2.7-5.3-4.1c-3.9-2.9-7.9-5.8-12-8.6l-74.7,206h-19L625.3,6.8c-13.3-2.4-26.8-4.1-40.6-5.3l0,0
	c-11.1-0.9-22.4-1.4-33.8-1.5L621,312.3l-8,7L363.4,40.7c-53.6,25.3-99.9,61.4-135.2,105l355.8,184v26L68.7,253
	c-0.7,0.6-1.3,1.2-2,1.9C26,293.6,0,353.3,0,420.2c0,1.9,0,3.9,0.1,5.8L584,375.7v27l-541.3,205C57.8,645.4,84.5,677.3,119,698.8
	L119,698.8z"/>
<polygon class="st1" points="828.5,727.7 739.5,727.7 713.8,484.9 713.4,481.4 713.4,481.4 711.2,460.7 800.3,460.1 803,460.1 
	803.2,462 "/>
<polygon class="st1" points="715.2,483.5 713.8,484.9 474.6,727.7 352.8,727.7 655.7,413.6 713.4,481.4 "/>
<path class="st2" d="M1079.1,683.7c-27.7,29.5-66.3,46.2-106.8,46.2H219.3c-48.4,0-94.9-18.8-129.6-52.5l1.1-0.2
	c109.9-17.5,282.4-28.9,476.3-28.9c214.7,0,403.1,13.9,509.4,34.7C1077.3,683.3,1078.2,683.5,1079.1,683.7z"/>
<path class="st3" d="M1079.1,684.2c-27.7,29.5-66.3,46.2-106.8,46.2H219.3c-48.4,0-94.9-18.8-129.6-52.5l1.1-0.2
	C200.6,660.2,373.1,649,567,649c214.7,0,403.1,13.9,509.4,34.7C1077.3,683.8,1078.2,684,1079.1,684.2z"/>
<circle class="st4" cx="703" cy="400.5" r="159"/>
<path class="st5" d="M856.5,678.5l-8.1,29.9c-3.1,11.6-13.6,19.6-25.6,19.6h-504c-12,0-22.5-8-25.6-19.6l-8.1-29.9
	c-7.1-26.1,11.4-52.7,38.4-53.9c0.7,0,1.3,0,2,0h490.6c0.7,0,1.3,0,2,0C845.1,625.8,863.6,652.4,856.5,678.5z"/>
<path class="st6" d="M807.7,638.1c0,32.3-109.7,58.5-245.1,58.5s-245.1-26.2-245.1-58.5c0-4.7,2.3-9.3,6.7-13.6H801
	C805.4,628.9,807.7,633.4,807.7,638.1z"/>
<path class="st7" d="M874.4,504.9c0-23.9-22-43.2-49-43.2s-49,19.4-49,43.2c-27.1,0-49,19.4-49,43.2s22,43.3,49,43.3
	c8.5,0,16.9-2,24.5-5.8c15.4,7.7,33.6,7.7,49,0c7.6,3.8,16,5.8,24.5,5.8c27.1,0,49-19.4,49-43.3S901.5,504.9,874.4,504.9z"/>
<path class="st6" d="M874.4,504.9c0-23.9-22-43.2-49-43.2s-49,19.4-49,43.2c-27.1,0-49,19.4-49,43.2s22,43.3,49,43.3
	c8.5,0,16.9-2,24.5-5.8c15.4,7.7,33.6,7.7,49,0c7.6,3.8,16,5.8,24.5,5.8c27.1,0,49-19.4,49-43.3S901.5,504.9,874.4,504.9z"/>
<path class="st7" d="M758.6,286c0-6-1.1-11.9-3.2-17.5c25.6-9.1,38.9-37.1,29.9-62.7c-6.9-19.6-25.5-32.7-46.3-32.7
	c0-27.1-22-49.1-49.1-49.1c-22.7,0-42.5,15.6-47.7,37.7c-0.5,0-0.9,0-1.3,0c0-27.1-21.9-49.1-49.1-49.1c-23.6,0-43.9,16.8-48.3,40
	c-21.3-16.8-52.2-13.1-68.9,8.3c-6.8,8.7-10.5,19.3-10.5,30.3c-27.1,0-49.1,22.1-49,49.2c0,16.5,8.4,31.9,22.2,41
	c-0.6,3.2-1,6.4-1,9.6c-27.1,0-49.1,22-49.1,49.1c0,27.1,22,49.1,49.1,49.1c8.6,0,17.1-2.3,24.6-6.6c15.2,8.8,33.9,8.8,49.1,0
	c18.7,10.8,42.2,8.1,58-6.6c0.8,0,1.7,0.1,2.6,0.1c8.6,0,17.1-2.3,24.6-6.6c11,6.4,24,8.2,36.3,5.1c15.7,11.6,36.8,12.8,53.8,3
	c15.2,8.8,33.9,8.8,49.1,0c23.5,13.6,53.5,5.5,67.1-17.9c13.6-23.5,5.5-53.5-17.9-67.1C775.7,288.2,767.2,285.9,758.6,286L758.6,286
	z M534.3,290.9c0-2.1-0.1-4.2-0.4-6.3c1.3-0.6,2.5-1.2,3.7-1.9c2,1.1,4,2.2,6.1,3c-2.4,1.6-4.7,3.3-6.8,5.3
	C536,290.9,535.2,290.9,534.3,290.9z"/>
<path class="st7" d="M736.2,421.3c-0.4-24.4-20.5-43.9-44.9-43.6c-23.9,0.4-43.2,19.7-43.6,43.6c-24.4,0-44.3,19.8-44.3,44.2
	c0,24.4,19.8,44.3,44.2,44.3c7.8,0,15.4-2,22.2-5.9c13.7,7.9,30.6,7.9,44.3,0c21.2,12.2,48.2,5,60.4-16.2
	c12.2-21.2,5-48.2-16.2-60.4C751.6,423.3,744,421.3,736.2,421.3z"/>
<path class="st6" d="M736.2,421.3c-0.4-24.4-20.5-43.9-44.9-43.6c-23.9,0.4-43.2,19.7-43.6,43.6c-24.4,0-44.3,19.8-44.3,44.2
	c0,24.4,19.8,44.3,44.2,44.3c7.8,0,15.4-2,22.2-5.9c13.7,7.9,30.6,7.9,44.3,0c21.2,12.2,48.2,5,60.4-16.2
	c12.2-21.2,5-48.2-16.2-60.4C751.6,423.3,744,421.3,736.2,421.3z"/>
<path class="st6" d="M758.6,286c0-6-1.1-11.9-3.2-17.5c25.6-9.1,38.9-37.1,29.9-62.7c-6.9-19.6-25.5-32.7-46.3-32.7
	c0-27.1-22-49.1-49.1-49.1c-22.7,0-42.5,15.6-47.7,37.7c-0.5,0-0.9,0-1.3,0c0-27.1-21.9-49.1-49.1-49.1c-23.6,0-43.9,16.8-48.3,40
	c-21.3-16.8-52.2-13.1-68.9,8.3c-6.8,8.7-10.5,19.3-10.5,30.3c-27.1,0-49.1,22.1-49,49.2c0,16.5,8.4,31.9,22.2,41
	c-0.6,3.2-1,6.4-1,9.6c-27.1,0-49.1,22-49.1,49.1c0,27.1,22,49.1,49.1,49.1c8.6,0,17.1-2.3,24.6-6.6c15.2,8.8,33.9,8.8,49.1,0
	c18.7,10.8,42.2,8.1,58-6.6c0.8,0,1.7,0.1,2.6,0.1c8.6,0,17.1-2.3,24.6-6.6c11,6.4,24,8.2,36.3,5.1c15.7,11.6,36.8,12.8,53.8,3
	c15.2,8.8,33.9,8.8,49.1,0c23.5,13.6,53.5,5.5,67.1-17.9c13.6-23.5,5.5-53.5-17.9-67.1C775.7,288.2,767.2,285.9,758.6,286L758.6,286
	z M534.3,290.9c0-2.1-0.1-4.2-0.4-6.3c1.3-0.6,2.5-1.2,3.7-1.9c2,1.1,4,2.2,6.1,3c-2.4,1.6-4.7,3.3-6.8,5.3
	C536,290.9,535.2,290.9,534.3,290.9z"/>
<path class="st5" d="M721.3,527.4c-3.8-1.5-7.7-3.1-11.8-3.6c-0.4,0-0.8-0.1-1.2-0.1c0-0.4,0-0.8,0-1.2c0.2-5,1.8-10.2,5.3-13.8
	c3.5-3.6,8.4-5.4,10.7-9.7c-8.3-2.4-17-3.7-25.7-3.8c-2.2,0-4.6,0-6.4,1.3c-2.3,1.5-3.3,4.3-4,6.9c-2.3,8.7-3.8,17.2-6.5,25.6
	l-0.7,0.2c-9.3,2-21,0.5-25.3-7.9c1.1-4.2,2.4-8.4,4-12.4c5-12.5,12.7-23.6,20.2-34.7c4.9-7.2,9.8-14.4,14.7-21.6
	c-7.4-2.2-14.8-4-22.4-5.4c-1.6-0.3-3.4-0.5-4.7,0.4c-0.9,0.8-1.6,1.8-1.9,2.9c-7.2,17.7-16.1,37.1-18.6,56.6
	c-1.4-0.8-2.9-1.5-4.3-2.1l-23.3-9.9c-1.2-0.4-2.3-1.1-3.2-2.1c-2.1-2.6,0-6.8,3.1-8.2s6.6-1,10-1.3s7.1-1.5,8.4-4.7
	c1.5-3.6-1.3-7.7-4.7-9.6s-7.4-2.4-11-4c-5.6-2.6-9.6-7.7-10.9-13.7l-5.6-0.3c7.3-7,14.9-13.7,23.6-18.9c4.2-2.5,8.7-4.6,12.6-7.5
	c10.5-8.1,16-21,14.4-34.2c-0.5-3.8-1.6-7.6-0.4-11.3c1-2.9,3.3-5.2,5.5-7.3l20.1-19.2c-12.8-2.9-25.9-4.2-39-3.8
	c-3.3,0.1-6.8,0.3-9.7,1.8c-5.4,2.7-8,8.9-10.1,14.6c-1.6,4-2.9,8.1-3.9,12.3c-1.5,7.1-1.3,14.9-5.3,20.9
	c-3.2,4.8-8.5,7.6-13.2,10.8c-13.5,9.2-23.6,22.7-28.7,38.2c-0.3,1-0.9,2.3-1.5,3.7c-11.8,1-23.3,3.2-34.2,7.8
	c-13.7,5.8-25.6,14.9-37.4,24c-12.9,10-26.5,21.2-31,36.9c-5,17.5,2.7,36.6,15.2,49.8c10.2,10.8,23.1,18.4,36.2,25.2
	c8.5,4.5,10,3.5,17.4-2.5l20.1-16.1c5.8-4.6,11.6-9.3,15.5-15.6c5.4-8.6,6.7-19.5,13.3-27.3c8.9-10.7,27.2-11.5,37.1-1.8
	c2.9,2.8,5.3,6.5,9.3,7.4c1.9,0.5,4,0.2,5.7,1c3.3,1.6,3.8,6,5,9.4c3.3,9.3,14.3,14.1,24,12.7s18.1-7.7,24.7-15c1.8-2,3.6-4.1,6-5.3
	c2-0.9,4.1-1.3,6.2-1.3c7.1-0.3,14.1,1.3,20.4,4.5c5.9,3,11,7.5,17.2,9.8c12.2,4.6,25.9,0.2,37.8-5L721.3,527.4z"/>
<path class="st6" d="M721.3,527.4c-3.8-1.5-7.7-3.1-11.8-3.6c-0.4,0-0.8-0.1-1.2-0.1c0-0.4,0-0.8,0-1.2c0.2-5,1.8-10.2,5.3-13.8
	c3.5-3.6,8.4-5.4,10.7-9.7c-8.3-2.4-17-3.7-25.7-3.8c-2.2,0-4.6,0-6.4,1.3c-2.3,1.5-3.3,4.3-4,6.9c-2.3,8.7-3.8,17.2-6.5,25.6
	l-0.7,0.2c-9.3,2-21,0.5-25.3-7.9c1.1-4.2,2.4-8.4,4-12.4c5-12.5,12.7-23.6,20.2-34.7c4.9-7.2,9.8-14.4,14.7-21.6
	c-7.4-2.2-14.8-4-22.4-5.4c-1.6-0.3-3.4-0.5-4.7,0.4c-0.9,0.8-1.6,1.8-1.9,2.9c-7.2,17.7-16.1,37.1-18.6,56.6
	c-1.4-0.8-2.9-1.5-4.3-2.1l-23.3-9.9c-1.2-0.4-2.3-1.1-3.2-2.1c-2.1-2.6,0-6.8,3.1-8.2s6.6-1,10-1.3s7.1-1.5,8.4-4.7
	c1.5-3.6-1.3-7.7-4.7-9.6s-7.4-2.4-11-4c-5.6-2.6-9.6-7.7-10.9-13.7l-5.6-0.3c7.3-7,14.9-13.7,23.6-18.9c4.2-2.5,8.7-4.6,12.6-7.5
	c10.5-8.1,16-21,14.4-34.2c-0.5-3.8-1.6-7.6-0.4-11.3c1-2.9,3.3-5.2,5.5-7.3l20.1-19.2c-12.8-2.9-25.9-4.2-39-3.8
	c-3.3,0.1-6.8,0.3-9.7,1.8c-5.4,2.7-8,8.9-10.1,14.6c-1.6,4-2.9,8.1-3.9,12.3c-1.5,7.1-1.3,14.9-5.3,20.9
	c-3.2,4.8-8.5,7.6-13.2,10.8c-13.5,9.2-23.6,22.7-28.7,38.2c-0.3,1-0.9,2.3-1.5,3.7c-11.8,1-23.3,3.2-34.2,7.8
	c-13.7,5.8-25.6,14.9-37.4,24c-12.9,10-26.5,21.2-31,36.9c-5,17.5,2.7,36.6,15.2,49.8c10.2,10.8,23.1,18.4,36.2,25.2
	c8.5,4.5,10,3.5,17.4-2.5l20.1-16.1c5.8-4.6,11.6-9.3,15.5-15.6c5.4-8.6,6.7-19.5,13.3-27.3c8.9-10.7,27.2-11.5,37.1-1.8
	c2.9,2.8,5.3,6.5,9.3,7.4c1.9,0.5,4,0.2,5.7,1c3.3,1.6,3.8,6,5,9.4c3.3,9.3,14.3,14.1,24,12.7s18.1-7.7,24.7-15c1.8-2,3.6-4.1,6-5.3
	c2-0.9,4.1-1.3,6.2-1.3c7.1-0.3,14.1,1.3,20.4,4.5c5.9,3,11,7.5,17.2,9.8c12.2,4.6,25.9,0.2,37.8-5L721.3,527.4z"/>
<path class="st7" d="M557.8,404.8c0-24.6-25.9-44.5-57.9-44.5s-57.9,19.9-57.9,44.5c-32,0-57.9,19.9-57.9,44.5
	c0,24.6,25.9,44.5,57.9,44.5c10,0,19.8-2,28.9-6c18.5,8,39.4,8,57.9,0c9.1,4,19,6,28.9,6c32,0,57.9-19.9,57.9-44.5
	S589.8,404.8,557.8,404.8z"/>
<path class="st6" d="M557.8,404.8c0-24.6-25.9-44.5-57.9-44.5s-57.9,19.9-57.9,44.5c-32,0-57.9,19.9-57.9,44.5
	c0,24.6,25.9,44.5,57.9,44.5c10,0,19.8-2,28.9-6c18.5,8,39.4,8,57.9,0c9.1,4,19,6,28.9,6c32,0,57.9-19.9,57.9-44.5
	S589.8,404.8,557.8,404.8z"/>
<path class="st5" d="M681.9,656.2L648.8,641c-2.7-1.2-5.6-2.8-6.4-5.6c-0.3-1.5-0.3-3.1,0-4.6c0.8-7.9-0.9-15.9-4.9-22.8
	c-2.5-4.3-5.9-8.1-7.3-12.8c-3.2-10,3-20.6,3.3-31.1c0.3-10.3-5-20.1-12.6-27.1c-2.3-2.1-4.7-4-6.5-6.5c-5.1-7.2-3-17-0.6-25.6
	l0.6-0.6c0.5-0.5,0.1-2.4-0.7-5.3c9.6-2.6,18.6-6.8,26.7-12.7c2.5-1.8,5-3.9,8-5.1c4.1-1.7,8.8-1.5,13-3c7.8-2.9,12.1-11,15.7-18.4
	c8.5-17.6,17.3-35.8,18.3-55.3c-7-5.4-15.6-8.5-24.4-8.9c-1.5-0.1-3.2,0-4.1,1.2c-0.5,0.7-0.9,1.6-1,2.5c-3,13.9-8.3,27.3-15.5,39.6
	c-2.9,5.2-6.4,9.9-10.5,14.2c-5,5-11.1,8.7-17.2,12.4c-5.1,3.1-11.9,6.1-17.7,9.7c-4-10.3-7.7-19.7-7.2-21.1
	c5-15.7,5.2-32.5,0.6-48.3c-1.2-3.9-2.6-7.8-3-11.9s0.5-8.1,0.8-12.2c0.6-8-0.6-16.1-0.5-24.2c0.1-10.9,2.5-21.7,4.8-32.4
	c-6.6-1.2-13.4-1.6-20.2-1.1c-1.3,0-2.6,0.3-3.8,1c-1.7,1.1-2.3,3.2-2.9,5.1c-4.5,14.9-12.5,28.5-17.3,43.3s-5.8,32.2,3.1,44.9
	c3.2,4.5,7.6,8.6,8.3,14.1c0.4,2.9-0.4,5.8-1.2,8.6c-1.3,5.1,20.4,59.5,21.6,64.6c0,0.1,0.1,0.3,0.1,0.4c-0.7,0.2-1.4,0.3-2.1,0.4
	c-0.9,14.2-6.4,27.7-15.6,38.4c-1.2-3.5-2.1-7.1-2.6-10.7c-0.8-5.5-0.7-11.2-2.4-16.5c-2.6-7.9-8.7-13.9-14.1-20.2
	c-9.7-11.3-17.4-24.2-22.7-38.2c-4.1,1.5-8.3,2.7-12.5,3.7c-2.3,0.5-10,0.5-11.2,2.5c-1.9,3,6.5,17,8.2,20.2
	c5.8,11.3,15.7,20.1,21.5,31.4c2.4,5,4.4,10.2,6,15.6c3.2,10,6.3,20,8.7,30.2c-2.9,3-5.2,6.7-7.7,10.1c-8.8,12-20.5,21.6-34,28
	c-1.6,0.8-3.4,1.6-4.1,3.3c-0.1,0.3-0.2,0.6-0.3,0.9c-5.5-3.9-10.6-8.2-14.2-13.8c-1.6-2.5-2.8-5.2-4.5-7.6
	c-5.8-8.1-15.9-11.5-24.2-17c-3.5-2.3-6.8-5.1-10.6-6.7c-4.3-1.8-9-2.1-13.5-2.5c-3.8-0.3-18.2-3.3-20.1,0.1
	c-2.6,4.8,5.7,11.7,9.1,13.4c5.6,2.8,11.9,3.5,17.8,5.7c5.3,2.2,10.1,5.1,14.5,8.8c1.9,1.4,3.5,3.1,4.9,5c1.4,2.3,2.1,4.9,3.3,7.3
	c3.9,7.6,12.3,11.1,19.8,15.6c-2,0.1-4,0.5-5.8,1.3c-5.6,2.5-8.2,8.8-11.8,13.8c-3.3,4.4-7.5,7.9-11.1,12s-6.6,9.2-6.3,14.7
	c0.2,3.5,1.6,7.2-0.3,10.2c4.2,1.8,9.4,4,14,4.5s9.5-0.3,12.9-3.4c1.1-1.1,2.2-2.2,3.4-3.2c2.9-1.9,6.9-1.4,9.9,0.2s5.6,4,8.5,6.1
	c8.2,5.8,18.4,7.8,28.2,5.5c2-0.5,4.9-0.9,4.3-2.8c-8.6-4-14.3-12.6-14.6-22.1c6.4-1.2,13,1.2,17.1,6.3c-2.8,0.1-4.6,3.9-3,6.1
	c10.7-0.2,20.7-5.6,26.8-14.5c7.2-2.9,15.3,0.5,18.3,7.6c0.8,1.9,1.1,4,1,6l14.5,7.1c2.3,1.1,4.7,2.3,7.2,2.1s5.1-2.2,4.9-4.7
	c-0.2-2.9-3.7-5.8-1.8-8c3.4,1.5,6,4.5,9.5,5.8s8.6-0.4,8.4-4.2c-0.2-1.2-0.6-2.4-1.4-3.4c-3.9-6-9.1-11-15.2-14.6
	c-0.5-3.3,7-6.9,9.3-4.4l18.3,20.2c1.4,1.7,3.1,3.2,5,4.5c6.5,3.8,14.7,0,22.3,0c8.2,0,16.5,4.7,24.2,1.7c2-0.8,4-2.7,3.4-4.7
	C684.8,657.7,683.3,656.9,681.9,656.2z"/>
<path class="st7" d="M731.4,280.1c0-5-0.9-9.9-2.7-14.6c21.3-7.5,32.4-30.9,24.8-52.2c-5.8-16.3-21.2-27.2-38.5-27.2
	c0-22.6-18.3-40.8-40.9-40.8c-18.9,0-35.3,13-39.7,31.3c-0.4,0-0.7,0-1.1,0c0.1-22.6-18.1-40.9-40.7-41c-19.8-0.1-36.8,14-40.3,33.4
	c-17.7-13.9-43.4-10.9-57.3,6.9c-5.7,7.2-8.7,16.1-8.7,25.2c-22.6,0-40.8,18.3-40.8,40.9c0,13.8,6.9,26.6,18.5,34.1
	c-0.5,2.6-0.8,5.3-0.8,8c-22.6,0-40.9,18.3-40.9,40.8s18.3,40.9,40.8,40.9c7.2,0,14.3-1.9,20.5-5.5c12.6,7.3,28.2,7.3,40.8,0
	c15.5,9,35.1,6.8,48.2-5.5c0.7,0,1.4,0,2.1,0c7.2,0,14.2-1.9,20.4-5.5c9.1,5.3,20,6.8,30.2,4.3c13.1,9.7,30.6,10.7,44.7,2.5
	c12.6,7.3,28.2,7.3,40.8,0c19.5,11.3,44.5,4.6,55.8-15c11.3-19.5,4.6-44.5-15-55.8C745.7,281.9,738.6,280.1,731.4,280.1L731.4,280.1
	z M544.9,284.1c0-1.8-0.1-3.5-0.3-5.3c1-0.5,2.1-1,3.1-1.6c1.6,0.9,3.3,1.8,5.1,2.5c-2,1.3-3.9,2.8-5.7,4.4
	C546.3,284.2,545.6,284.1,544.9,284.1z"/>
<path class="st7" d="M870.3,506.1c0-22.5-20.7-40.8-46.3-40.8s-46.3,18.3-46.3,40.8c-25.6,0-46.3,18.3-46.3,40.8
	s20.7,40.8,46.3,40.8c8,0,16-1.9,23.1-5.5c14.6,7.3,31.7,7.3,46.3,0c7.2,3.6,15.1,5.5,23.1,5.5c25.6,0,46.3-18.3,46.3-40.8
	S895.9,506.1,870.3,506.1z"/>
<path class="st7" d="M731.4,423c0.4-22.6-17.6-41.1-40.2-41.5c-22.6-0.4-41.1,17.6-41.5,40.2c0,0.4,0,0.9,0,1.3
	c-22.6,0-40.8,18.3-40.8,40.9c0,22.6,18.3,40.8,40.9,40.8c7.2,0,14.2-1.9,20.4-5.5c12.6,7.3,28.2,7.3,40.8,0
	c19.5,11.3,44.5,4.6,55.8-15c11.3-19.5,4.6-44.5-15-55.8C745.6,424.9,738.6,423,731.4,423L731.4,423z"/>
<path class="st7" d="M553.1,406.7c0-22.6-23.8-40.8-53.1-40.8s-53.1,18.3-53.1,40.8c-29.3,0-53.1,18.3-53.1,40.8
	c0,22.6,23.8,40.8,53.1,40.8c9.1,0,18.2-1.8,26.5-5.5c16.9,7.3,36.2,7.3,53.1,0c8.4,3.7,17.4,5.5,26.5,5.5
	c29.3,0,53.1-18.3,53.1-40.8S582.4,406.7,553.1,406.7z"/>
<path class="st7" d="M453.7,526.5c0.4-24.1-18.8-43.9-42.9-44.2c-24.1-0.4-43.9,18.8-44.2,42.9c0,0.4,0,0.9,0,1.3
	c-24.1,0-43.6,19.5-43.6,43.5c0,24.1,19.5,43.6,43.5,43.6c7.7,0,15.2-2,21.8-5.8c13.5,7.8,30.1,7.8,43.6,0c20.8,12,47.5,4.9,59.5-16
	c12-20.8,4.9-47.5-16-59.5C468.8,528.5,461.3,526.5,453.7,526.5z"/>
<path class="st6" d="M453.7,526.5c0.4-24.1-18.8-43.9-42.9-44.2c-24.1-0.4-43.9,18.8-44.2,42.9c0,0.4,0,0.9,0,1.3
	c-24.1,0-43.6,19.5-43.6,43.5c0,24.1,19.5,43.6,43.5,43.6c7.7,0,15.2-2,21.8-5.8c13.5,7.8,30.1,7.8,43.6,0c20.8,12,47.5,4.9,59.5-16
	c12-20.8,4.9-47.5-16-59.5C468.8,528.5,461.3,526.5,453.7,526.5z"/>
<path class="st7" d="M451,527.8c0.4-22.6-17.6-41.1-40.2-41.5c-22.6-0.4-41.1,17.6-41.5,40.2c0,0.4,0,0.9,0,1.3
	c-22.6,0-40.8,18.3-40.8,40.8c0,22.6,18.3,40.8,40.8,40.8c7.2,0,14.2-1.9,20.4-5.5c12.6,7.3,28.2,7.3,40.9,0
	c19.5,11.3,44.5,4.6,55.8-15c11.3-19.5,4.6-44.5-15-55.8C465.2,529.7,458.1,527.8,451,527.8L451,527.8z"/>
<path class="st6" d="M579,195.6c19.7,0,36.4,14.5,39.1,34c3.1-21.6-11.8-41.6-33.4-44.7c-21.6-3.1-41.6,11.8-44.7,33.4
	c-0.3,2-0.4,3.9-0.4,5.9c0,1.8,0.1,3.6,0.4,5.5C542.6,210.2,559.3,195.7,579,195.6z"/>
<path class="st6" d="M660,266.1c17.9,8.2,27,28.4,21.3,47.3c11.7-18.4,6.3-42.8-12-54.5c-18.4-11.7-42.8-6.3-54.5,12
	c-1,1.5-1.8,3.1-2.6,4.8c-0.8,1.7-1.4,3.4-1.9,5.1C620.9,264.2,642.1,257.9,660,266.1z"/>
<path class="st6" d="M544.3,296.1c17.9,8.2,27,28.4,21.3,47.3c1-1.5,1.9-3.1,2.6-4.8c9-19.9,0.2-43.3-19.7-52.3
	c-19.7-8.9-43-0.3-52.1,19.3c-0.8,1.7-1.4,3.4-1.9,5.1C505.2,294.1,526.4,287.9,544.3,296.1z"/>
<path class="st6" d="M503.2,422.6c8.9,7.8,10.6,20.9,4.2,30.8c0.8-0.7,1.6-1.5,2.3-2.3c8.6-9.8,7.6-24.8-2.2-33.4
	s-24.8-7.6-33.4,2.2l0,0c-0.7,0.8-1.4,1.7-2,2.6C481.1,414.7,494.3,414.8,503.2,422.6z"/>
<path class="st6" d="M874.9,531.5c8.9,7.8,10.6,20.9,4.2,30.8c0.8-0.7,1.6-1.5,2.3-2.3c8.6-9.8,7.6-24.8-2.2-33.4
	s-24.8-7.6-33.4,2.2c-0.7,0.8-1.4,1.7-2,2.6C852.7,523.6,866,523.7,874.9,531.5z"/>
<path class="st6" d="M411.4,531.1c9.5-7.1,22.7-6.1,31,2.3c-0.5-1-1.1-1.9-1.8-2.8c-8-10.3-22.9-12.2-33.2-4.2
	c-10,7.8-12.1,22.2-4.7,32.5c0.7,0.9,1.4,1.7,2.1,2.5C399.2,551.2,402,538.2,411.4,531.1z"/>
<path class="st6" d="M686.4,442.6c9.5-7.1,22.7-6.1,31,2.3c-0.5-1-1.1-1.9-1.8-2.8c-7.6-10.6-22.4-13-33-5.4
	c-10.6,7.6-13,22.4-5.4,33c0.2,0.2,0.3,0.5,0.5,0.7c0.7,0.9,1.4,1.7,2.1,2.5C674.2,462.7,677,449.7,686.4,442.6z"/>
<path class="st7" d="M643.5,619.6c-2.6-2-2.3-6.8-2.3-6.8s4.6-1.5,7.2,0.5s3.6,5.1,2.3,6.8S646.2,621.7,643.5,619.6z"/>
<path class="st7" d="M652.5,672.6c-2.6-2-2.3-6.8-2.3-6.8s4.6-1.5,7.2,0.5s3.6,5.1,2.3,6.8S655.2,674.7,652.5,672.6z"/>
<path class="st7" d="M643.5,677.6c-2.6-2-2.3-6.8-2.3-6.8s4.6-1.5,7.2,0.5s3.6,5.1,2.3,6.8S646.2,679.7,643.5,677.6z"/>
<path class="st7" d="M705.5,638.6c-2.6-2-2.3-6.8-2.3-6.8s4.6-1.5,7.2,0.5s3.6,5.1,2.3,6.8S708.2,640.7,705.5,638.6z"/>
<path class="st7" d="M447.9,484c2-2.6,6.9-2.2,6.9-2.2s1.5,4.6-0.6,7.2s-5.1,3.6-6.9,2.2S445.8,486.6,447.9,484z"/>
<circle class="st1" cx="478" cy="266.5" r="25"/>
<path class="st3" d="M153.5,692.1c0.7-1.9,2.3-3.3,4.2-3.7c1-0.2,2.1-0.3,3.1-0.3c6.3,0.1,11.1,3,16.9,4.3
	c5.5,1.3,11.8,1.2,17.9,1.1c3.8,0.1,7.6-0.2,11.3-0.9c6.1-1.3,10-4.3,13.7-7.2"/>
<path class="st3" d="M859.5,682.1c0.7-1.9,2.3-3.3,4.2-3.7c1-0.2,2.1-0.3,3.1-0.3c6.3,0.1,11.1,3,16.9,4.3
	c5.5,1.3,11.8,1.2,17.9,1.1c3.8,0.1,7.6-0.2,11.3-0.9c6-1.3,10-4.3,13.7-7.2"/>
<path class="st3" d="M915.5,704.1c0.7-1.9,2.3-3.3,4.2-3.7c1-0.2,2.1-0.3,3.1-0.3c6.3,0.1,11.1,3,16.9,4.3
	c5.5,1.3,11.8,1.2,17.9,1.1c3.8,0.1,7.6-0.2,11.3-0.9c6-1.3,10-4.3,13.7-7.2"/>
<path class="st3" d="M868.5,699.1c0.3-0.6,0.9-0.9,1.5-1c0.4-0.1,0.8-0.1,1.1-0.1c2.3,0,4.1,0.8,6.2,1.2c2.2,0.3,4.3,0.4,6.5,0.3
	c1.4,0,2.8-0.1,4.1-0.3c1.8-0.3,3.5-1,5-2"/>
<path class="st3" d="M878.5,688.1c0.3-0.6,0.9-0.9,1.5-1c0.4-0.1,0.8-0.1,1.1-0.1c2.3,0,4.1,0.8,6.2,1.2c2.2,0.3,4.3,0.4,6.5,0.3
	c1.4,0,2.8-0.1,4.1-0.3c1.8-0.3,3.5-1,5-2"/>
<path class="st3" d="M254.5,670.2c0.4-0.6,0.9-0.9,1.6-1c0.4-0.1,0.8-0.1,1.2-0.1c2.4,0,4.2,0.8,6.4,1.1c2.3,0.3,4.5,0.4,6.8,0.3
	c1.4,0,2.9-0.1,4.3-0.2c1.8-0.3,3.6-0.9,5.2-1.9"/>
<path class="st3" d="M225.5,671.2c0.4-0.6,0.9-0.9,1.6-1c0.4-0.1,0.8-0.1,1.2-0.1c2.4,0,4.2,0.8,6.4,1.1c2.3,0.3,4.5,0.4,6.8,0.3
	c1.4,0,2.9-0.1,4.3-0.2c1.8-0.3,3.6-0.9,5.2-1.9"/>
<path class="st3" d="M212.5,712.1c0.7-1.9,2.3-3.3,4.2-3.7c1-0.2,2.1-0.3,3.1-0.3c6.3,0.1,11.1,3,16.9,4.3
	c5.5,1.3,11.8,1.2,17.9,1.1c3.8,0.1,7.6-0.2,11.3-0.9c6-1.3,10-4.3,13.7-7.2"/>
<path class="st8" d="M791,656.1c-0.1,0.4-0.2,0.8-0.1,1.1c0.2,0.8,1.2,1,1.9,1.1c1.8,0.2,3.6,0.2,5.5,0.1l16.5-0.3
	c0.3,0,0.5,0,0.7-0.1c0.2-0.2,0.4-0.4,0.5-0.6c1.1-2.1,1.8-4.3,2.1-6.7c0.1-0.3,0-0.7-0.1-1c-0.3-0.4-0.7-0.7-1.1-0.8
	c-2.3-0.9-4.7-1.6-7.1-2.3c-1.6-0.4-3.1-0.8-4.7-1.3c-2-0.8-4-2.5-6-2.9c-1.8-0.3-2.1,1.1-2.7,2.5C795,648.7,792.2,652,791,656.1z"
	/>
<linearGradient id="SVGID_1_" gradientUnits="userSpaceOnUse" x1="814.7815" y1="-38.7213" x2="882.2415" y2="-38.7213" gradientTransform="matrix(0.9661 0.2583 0.2583 -0.9661 20.549 377.8957)">
	<stop  offset="0" style="stop-color:#808080;stop-opacity:0.25"/>
	<stop  offset="0.54" style="stop-color:#808080;stop-opacity:0.12"/>
	<stop  offset="1" style="stop-color:#808080;stop-opacity:0.1"/>
</linearGradient>
<path class="st9" d="M852.8,678.7c-0.4-1.9-2.1-3.3-3.7-4.4s-3.3-2.3-5-3.3c2.8-1.5,5.4-3.4,7.6-5.6c1.4-1.2,2.6-2.5,3.5-4.1
	c1-1.6,1.3-3.4,0.9-5.2c-0.7-2.1-2.3-3.7-4.4-4.4c-2-0.7-4.2-1.1-6.4-1.1c-1.5-0.1-3.1-0.2-4.7-0.3c1-0.2,1.9-0.4,2.9-0.7
	c3.5-1.1,6.9-2.7,10-4.6c1.1-0.5,1.9-1.3,2.4-2.4c0.2-1.1-0.3-2.2-1.2-2.8c-0.9-0.6-1.9-1-3-1c-3-0.1-5.9,0.9-8,3
	c-0.7,0.8-1.4,1.4-2.3,2c-1,0.7-2.4,0.5-3.2-0.5c-0.2-0.4-0.3-0.9-0.3-1.4l0.1,0c2.5-2.3,3.7-5.7,3.3-9.1c-0.4-2.5-1.3-5-2.5-7.3
	c1.7-0.6,3.5-1,5.3-1.1c0.5,0,1-0.1,1.4-0.3c0.9-0.5,1.5-1.4,1.7-2.4c0.2-1,0.5-1.9,0.8-2.9c4.5,2.8,10.3,1.9,13.7-2.2
	c1.9,0.1,3.9-0.3,5.6-1.3c2-1.2,3.9-4.1,2.7-6.5c-0.5-0.7-1.1-1.4-1.8-1.9c-0.8-1-1.5-2.2-1.9-3.4c-2.2-5.5-6.8-7.7-12.5-8.5
	c-2.5-0.5-5.1-0.5-7.7-0.2c-2,0.4-3.9,0.9-5.7,1.7l-0.9,0.3c-0.1-1.5-0.3-3-0.4-4.2c-0.1-0.5,0-1,0.2-1.5c0.4-0.7,1.2-1.3,2-1.5
	l11.3-4.8c1.2-0.6,2.4-1,3.7-1.3c3.7-0.9,7.8,0,11.2-1.7c2-1,3.4-2.9,3.9-5c0.4-1.5,0.1-3.4-1.2-4.2s-3.2-0.1-4.7,0.6
	c-4.8,2.6-9.7,4.8-14.8,6.7c-4.9,1.6-10,2.6-14.5,5c-0.8,0.4-1.6,0.9-2.2,1.5c-0.7,0.8-1.3,1.7-1.7,2.6l-1.8,3.4
	c-1.4,2.7-2.8,5.9-1.6,8.7c-0.2,0.2-0.3,0.4-0.5,0.6c-0.5,0.8-0.3,1.9-0.7,2.6s-2.1,1.4-2.8,2c-1.1,0.7-2.1,1.5-3.2,2.3
	c-4,3.2-7.6,6.8-10.9,10.7c-4.8,6-9.3,12.2-13.4,18.7c-0.8,1.1-1.4,2.3-1.9,3.6c-0.3,1.2-0.3,2.4,0.1,3.6c-1.6,3.6-4.2,6.7-5.2,10.5
	l-0.7,0.1c-1.2,3.5-0.4,7.5,0.2,11.1c0.3,2.1,0.8,4.3,2.5,5.6c0.9,0.6,1.9,1,3,1.2c1.2,0.3,2.3,0.6,3.4,1h-0.1c-1.4-0.1-3,0-3.8,1.1
	c-0.4,0.6-0.6,1.3-0.7,2l-2.6,14.7c-0.3,1.1-0.3,2.2,0.2,3.3c0.6,0.9,1.4,1.5,2.4,1.9c1.8,0.8,3.6,1.3,5.5,1.5
	c0.8,0.2,1.6,0.1,2.4-0.2c0.8-0.3,1.3-1,1.2-1.8c-0.2-1.1-1.5-1.7-2-2.7c-0.7-1.3,0.4-2.8,1.4-3.9c0.2-0.2,0.3-0.3,0.5-0.5
	c0.4,1.1,0.9,2.2,1.6,3.2c0.5,0.9,1.4,1.4,2.4,1.3c2.3-0.5,4.7-1,7-1.5l0.5,0.2c3.8,1.6,7.8,2.9,11.9,3.9c0.8,0.2,1.6,0.3,2.3,0.2
	c0.8-0.1,1.4-0.7,1.6-1.5c0.1-0.9-0.7-1.7-1.5-2.3c-1.5-1-3.1-1.8-4.8-2.4l7.6-1.4c2.5-0.5,5.1-0.8,7.7-0.9c3.3,0.1,7,0.8,9.7-1.1
	c1.5-1.3,2.6-3.1,3.1-5C852.8,681.4,853,680,852.8,678.7z M826.5,649.9c-1.2,0-2.5,0-3.9,0c0.1-1,0.2-2,0.3-3c0-0.3,0.1-0.6,0.3-0.8
	c0.3-0.2,0.6-0.4,0.9-0.4l4.8-0.9c0.2-0.8,0.1-1.6-0.3-2.3c0.4,0.3,0.8,0.5,1.2,0.7c-0.1,2,0.3,3.9,1,5.7c0.2,0.4,0.4,0.8,0.8,1.1
	h0.1C829.9,649.9,828.2,649.9,826.5,649.9z"/>
<path class="st10" d="M844.7,651c2.1,0,4.2,0.4,6.2,1.1c2,0.7,3.6,2.3,4.3,4.4c0.4,1.8,0.1,3.6-0.9,5.1c-1,1.5-2.1,2.8-3.5,4
	c-2.5,2.5-5.4,4.6-8.6,6.1c-1.6,0.7-3.3,1.2-4.8,1.9c-3.3,1.6-5.8,4.4-8.3,7.2c-2.4,2.5-4.5,5.3-6.1,8.3c-0.1,0.2-0.3,0.5-0.5,0.6
	c-0.2,0-0.5,0-0.7-0.1l-7-3.3c-0.6-0.2-1-0.8-0.9-1.4c0.1-0.2,0.2-0.4,0.3-0.6c3.4-6.4,8.1-12.1,13.8-16.6
	c-4.9,2.7-10.9,2.8-15.9,0.3c-1-0.4-1.8-1.1-2.5-2c-1.2-1.9-0.5-4.5,0.5-6.5c0.8-1.8,1.8-3.6,2.9-5.3c2.6-4.1,8.8-3.7,13.2-3.7
	C832.4,650.4,838.6,650.6,844.7,651z"/>
<path class="st6" d="M835.1,665.4c-1.2,0.1-2.3,0.5-3.3,1.1c1.7-1.2,5.7-0.9,7.7-1.1c2.6-0.1,5.2-0.6,7.6-1.4
	C843.1,664.1,839,664.6,835.1,665.4z"/>
<path class="st4" d="M802.9,690.4c-1,1.1-2,2.5-1.4,3.8c0.5,1,1.8,1.5,2,2.6c0,0.8-0.5,1.5-1.2,1.8c-0.7,0.3-1.5,0.3-2.3,0.2
	c-1.9-0.2-3.7-0.7-5.4-1.5c-1-0.3-1.8-1-2.3-1.8c-0.4-1-0.4-2.2-0.1-3.2l2.6-14.6c0.1-0.7,0.3-1.4,0.7-2c0.8-1.1,2.4-1.2,3.7-1.1
	c1.5,0.1,3,0.5,4.4,1c1,0.3,1.9,0.9,2.5,1.7c0.5,1,0.7,2.2,0.5,3.4c-0.1,1.8,0.2,4.4-0.5,6.1C805.6,688.1,803.9,689.3,802.9,690.4z"
	/>
<path class="st4" d="M820.6,690.2c2.9,0.4,5.6,1.5,8,3.1c0.8,0.5,1.5,1.3,1.4,2.3c-0.2,0.8-0.8,1.4-1.6,1.5c-0.8,0.1-1.5,0-2.3-0.2
	c-4-0.9-7.9-2.2-11.6-3.8c-1-0.3-1.9-0.9-2.6-1.7c-0.7-0.8-0.8-2-0.2-2.9c0.7-0.8,2.1-0.8,3-1.5c0.6-0.5,1-1.4,1.8-1.6
	c0.6,0,1.1,0.2,1.6,0.5c0.7,0.5,2.4,1.2,2.7,2C820.8,688.7,820.7,689.5,820.6,690.2z"/>
<path class="st10" d="M790.4,656.1c4.8-0.8,9.6-1.7,14.5-2c3.6-0.3,7.5-0.2,10.4,2c0.9,0.6,1.6,1.4,2.4,2.1c2.7,2.4,6.2,3.5,9.6,4.8
	c7.5,2.9,14.5,6.7,21.1,11.3c1.6,1.1,3.2,2.4,3.6,4.3c0.2,1.3,0,2.7-0.5,3.9c-0.5,1.9-1.5,3.7-3,5c-2.6,1.9-6.3,1.2-9.5,1.1
	c-2.5,0.1-5,0.4-7.5,0.9c-8.1,1.5-16.1,3-24.1,4.8c-1,0.1-1.9-0.4-2.4-1.3c-1.6-2.5-2.4-5.4-2.5-8.4c0-3,0.4-5.9,1.2-8.8
	c-2.7-0.7-4.9-1.5-7.7-2.2c-1-0.2-2-0.6-2.9-1.2c-1.6-1.2-2.1-3.5-2.5-5.5C790,663.5,789.2,659.5,790.4,656.1z"/>
<path class="st6" d="M837.5,679.6c-1.8-1.3-3.9-2.2-6.1-2.6c-1.3-0.4-2.6-0.6-4-0.8c-2.1,0-4.2,0.2-6.3,0.6
	c-5.1,0.7-10.3,0.4-15.2-1"/>
<path class="st11" d="M872.7,562.8c0,0-22.1,98-20.9,100.8s8.3,17-4.7,61.9c-0.2,2-2,3.5-4,3.4c-3.7,0-16.3-3.7-16.3-3.7
	c-1-1.1-1.4-2.6-1.1-4c0.5-2.6,5-45.7,21.2-60.1l20.2-99.2C867,562.1,869.7,560,872.7,562.8z"/>
<path class="st1" d="M1145,467.7c0,19.7-2.3,39.3-6.8,58.4c-3.7,15.5-9,30.6-15.8,45c-1.1,2.4-2.3,4.8-3.5,7.1
	c0.1,28.5-8,56.5-23.3,80.6c-26.3,41.4-72.1,68.8-124.3,68.8H218.2c-34.7,0-68.7-9.7-98.2-28c-24-14.9-44.3-35-59.6-58.7
	c-19.8-30.9-30.3-66.8-30.3-103.5c-3.2-5.8-6.2-11.8-8.9-18c-8.7-19.9-14.7-41-17.7-62.6C1.8,445.1,1,433.2,1,421.2
	c0-66.9,26-126.6,66.7-165.4c30.3-28.9,68.6-46.1,110.3-46.1c3.5,0,6.9,0.1,10.3,0.4c1.9-3.8,3.8-7.5,5.9-11.2
	c55.7-102,165-176.4,295.2-194c19.7-2.7,39.5-4,59.4-4c12.5,0,24.8,0.5,36.9,1.5l0,0C667.5,9.2,742.1,38.4,801.7,83
	c1.8,1.3,3.6,2.7,5.3,4.1c25.4-16.9,54.7-26.6,85.9-26.6c5.3,0,10.6,0.3,15.9,0.9c76.5,8.1,139,74.5,156.3,161.7
	c3.2,16.1,4.8,32.5,4.8,49c0,7.5-0.3,14.8-1,22.1c5.7,4.7,11.1,9.8,16.2,15.2C1121.9,348,1145,404.7,1145,467.7z"/>
<path class="st11" d="M867.4,556l6.3,1.1c1.3,0.2,2.4,1.2,2.7,2.5c0.4,1.9,0.2,4.2-4,4.3c-6.8,0.1-5.4-1.8-5.4-1.8s-3.3,0-3.6-2.6
	c-0.1-1.8,1.3-3.4,3.1-3.5C866.8,555.9,867.1,555.9,867.4,556z"/>
<path class="st8" d="M841.4,610.1c-2.3,0-4.5-1-6-2.7c-0.3-0.4-0.7-0.7-1.1-0.9c-0.8-0.3-1.6-0.2-2.3,0.3c-2.3,1.3-3.3,4.2-3,6.8
	c0.4,2.6,1.5,5,3.2,7.1c1.2,1.7,2.6,3.3,4,4.9c1.6-2,3.9-3.3,6.4-3.6c2.3-0.3,4.3-2,6-3.5c1.2-1.1,2-0.9,1.6-2.5
	c-0.5-1.6-1.2-3.1-2.1-4.6c-0.5-0.8-0.8-1.7-1.1-2.7c-0.3-1.1,0-1.7-1-1.1c-0.7,0.3-1.2,1.3-1.9,1.8
	C843.3,609.8,842.4,610.1,841.4,610.1z"/>
<path class="st8" d="M838.9,593.9c-0.1-0.5,0-1,0.2-1.4c0.4-0.7,1.1-1.2,1.9-1.5l11-4.8c1.2-0.5,2.4-1,3.6-1.3
	c3.6-0.9,7.6,0,10.9-1.8c1.9-1,3.3-2.8,3.8-4.9c0.4-1.5,0.1-3.4-1.2-4.2s-3.2-0.1-4.6,0.6c-4.6,2.5-9.5,4.7-14.4,6.6
	c-4.8,1.6-9.8,2.6-14.2,4.9c-0.8,0.4-1.5,0.9-2.2,1.5c-0.7,0.8-1.2,1.6-1.7,2.6l-1.7,3.3c-1.4,2.8-2.9,6.1-1.5,9
	c0.4,0.9,1.2,1.6,2.1,1.8c0.7,0.1,1.4,0,2-0.1c1.7-0.4,4.6-0.4,5.5-2.1C839.8,599.9,839,596.2,838.9,593.9z"/>
<path class="st8" d="M841,644.3c0.8-0.6,1.6-1.2,2.2-2c2.1-2,4.9-3.1,7.8-2.9c1.1,0,2.1,0.3,3,0.9c0.9,0.6,1.3,1.7,1.1,2.8
	c-0.4,1.1-1.3,1.9-2.3,2.4c-3.1,1.9-6.4,3.4-9.8,4.6c-3.4,1.1-7.1,1.4-10.7,0.8c-0.4-0.1-0.7-0.2-1-0.4c-0.3-0.3-0.6-0.7-0.7-1.1
	c-1.2-2.9-1-6.1-0.7-9.2c-0.1,1.1,6.6,0.2,7.2,0.7c0.9,0.7,0.4,2.1,0.9,3C838.7,644.8,840,645,841,644.3z"/>
<circle class="st8" cx="853" cy="611.1" r="10.1"/>
<path class="st4" d="M831,600.6c1.9-0.6,4-0.7,6-0.4c1.2-0.2,2.3,0.6,2.6,1.8c0,0.1,0,0.1,0,0.2c0.3,1.1,0.5,2.3,0.5,3.4
	c0,1.2-0.6,2.3-1.6,2.9c-0.7,0.5-1.7,0.5-2.4,1c-1,0.7-1.7,1.8-1.7,3c-0.1,1.2,0.1,2.4,0.4,3.5c0.8,2.9,1.8,5.8,3,8.5
	c1.3,2.9,2.8,5.7,3.2,8.8c0.5,3.3-0.7,6.7-3.2,9c-2.6,2.2-6.3,2.5-9.2,0.7c0.4,0.7,0.5,1.5,0.3,2.3l-4.7,0.9c-0.7,0-1.2,0.5-1.2,1.2
	c0,0,0,0,0,0.1c-0.1,1.7-0.4,3.5-0.8,5.1c-0.5,1.7-1.8,3.1-3.5,3.5c-1.6,0.3-3.1-0.5-4.6-1.2c-3.4-1.7-6.9-3-10.5-4
	c-1.8-0.4-3.6-1.1-5.2-2.1c-2-1.6-2.9-4.3-2.3-6.8c0.4-1.3,1-2.5,1.8-3.5c4-6.4,8.4-12.6,13.2-18.4c3.2-3.9,6.8-7.4,10.7-10.6
	c1-0.8,2-1.6,3.1-2.3c0.8-0.5,2.3-1.1,2.8-1.9s0.2-1.8,0.7-2.6C829,601.8,829.9,601,831,600.6z"/>
<path class="st10" d="M866.4,616.2c-1.8,1-3.9,1.4-6,1.2c-2.1-0.1-4.1-0.4-6.2-0.5c-2.5-0.1-5.5,0.5-6.7,2.7
	c-0.4,0.9-0.7,1.9-0.8,2.9c-0.2,1-0.8,1.9-1.7,2.3c-0.5,0.2-0.9,0.2-1.4,0.3c-8.8,0.9-16.2,7.1-18.5,15.7c-2.1-2.1-3.1-5-2.8-8
	c-0.7,2.6-3.6,4.7-3,7.3c-4.6-5-4.2-12.8,0.9-17.4c0.3-0.3,0.6-0.5,0.9-0.7c1.3-1,2.8-1.7,4.2-2.6c3.9-2.6,6.5-6.7,7.2-11.3
	c0.3-1.9,0.3-4,1.2-5.7c1.3-2.4,4-3.6,6.5-4.6c1.8-0.7,3.7-1.3,5.6-1.7c2.5-0.3,5-0.3,7.5,0.2c5.5,0.8,10.1,3,12.2,8.4
	c0.4,1.2,1,2.3,1.8,3.3c0.7,0.6,1.2,1.2,1.7,1.9C870.2,612.1,868.4,615,866.4,616.2z"/>
<path class="st2" d="M272.5,729.9c0,0,83.2-38.8,114.5-25.2s104.9,10.9,104.9,10.9s130.7-5.4,145.7,0s151.1,5.5,157.9,0
	s84.4-9.5,96.7,0c7.5,5.8,15.7,10.6,24.5,14.3H272.5z"/>
<path class="st3" d="M272.5,729.9c0,0,83.2-46.1,114.5-29.9S491.8,713,491.8,713s130.7-6.5,145.7,0s151.1,6.5,157.9,0
	s84.4-11.3,96.7,0c7.3,6.8,15.6,12.5,24.5,17L272.5,729.9z"/>
</svg>
